<?xml version="1.0" encoding="utf-8"?>
<svg xmlns="http://www.w3.org/2000/svg" viewBox="0 0 400 400">
  <path d="M 373.305 23.356 C 383.097 31.191 389.585 43.554 390 55.6 L 390 344.4 C 389.586 356.446 383.098 368.809 373.305 376.644 C 363.512 384.478 348.057 389.667 333 390 L 67 390 C 51.942 389.668 36.488 384.479 26.695 376.644 C 16.903 368.809 10.415 356.446 10 344.4 L 10 55.6 C 10.414 43.554 16.902 31.191 26.695 23.356 C 36.488 15.522 51.942 10.332 67 10 L 333 10 C 348.057 10.332 363.512 15.521 373.305 23.356 Z" style="stroke-linecap: round; stroke-linejoin: round; stroke-width: 20px; paint-order: fill; fill: rgb(0, 160, 169); fill-rule: nonzero; stroke: rgb(8, 49, 74);" id="background"/>
  <g id="content" style="" transform="matrix(1, 0, 0, 1, 4.410816, -13.609188)">
    <path d="M 68.224 219.989 L 136.543 180.545 L 136.543 289.57 C 136.947 299.314 141.272 309.913 147.584 316.225 C 153.897 322.537 164.496 326.862 174.239 327.266 L 191.405 327.266 L 145.471 353.786 C 140.515 357.115 136.362 357.156 130.929 355.701 C 125.497 354.245 121.922 352.133 119.293 346.772 L 61.209 246.168 C 57.88 241.211 57.839 237.059 59.295 231.626 C 60.75 226.193 62.862 222.618 68.224 219.989 Z" style="fill-rule: nonzero; stroke-width: 18.533; stroke-linejoin: round; stroke-linecap: round; transform-box: fill-box; transform-origin: 50% 50%; filter: none; fill: rgb(8, 49, 74);" transform="matrix(0.866025, -0.5, 0.5, 0.866025, -0.000002, 0.000008)"/>
    <path d="M 143.817 114.888 L 225.379 114.888 C 231.336 114.483 234.952 116.524 238.93 120.501 C 239.959 121.53 240.858 122.535 241.619 123.562 C 235.848 126.939 230.507 131.989 226.946 137.607 L 168.863 238.211 C 164.341 246.851 162.787 258.192 165.097 266.816 C 165.326 267.669 165.6 268.526 165.917 269.383 L 143.817 269.383 C 137.86 269.788 134.243 267.747 130.266 263.77 C 126.289 259.793 124.249 256.177 124.653 250.219 L 124.653 134.052 C 124.248 128.094 126.289 124.478 130.266 120.501 C 134.243 116.524 137.86 114.484 143.817 114.888 Z" style="fill-rule: nonzero; stroke-width: 18.533; stroke-linejoin: round; stroke-linecap: round; transform-box: fill-box; transform-origin: 50% 50%; filter: none; fill: rgb(8, 49, 74);" transform="matrix(0.866025, -0.5, 0.5, 0.866025, -0.000012, 0.000014)"/>
    <path d="M 355.156 146.207 C 356.612 151.64 356.571 155.792 353.242 160.749 L 295.158 261.353 C 292.529 266.714 288.954 268.826 283.522 270.282 C 278.089 271.737 273.937 271.697 268.98 268.367 L 198.345 227.586 C 192.985 224.957 190.872 221.383 189.416 215.95 C 187.96 210.517 188.002 206.365 191.331 201.408 L 249.415 100.804 C 252.043 95.443 255.618 93.331 261.051 91.875 C 266.484 90.419 270.636 90.46 275.593 93.79 L 346.227 134.57 C 351.589 137.199 353.701 140.774 355.156 146.207 Z" style="fill-rule: nonzero; stroke-width: 18.533; stroke-linejoin: round; stroke-linecap: round; transform-box: fill-box; transform-origin: 50% 50%; filter: none; fill: rgb(8, 49, 74);" transform="matrix(0.866025, -0.5, 0.5, 0.866025, 0.000005, 0.000001)"/>
  </g>
</svg>