<?xml version="1.0" encoding="utf-8"?>
<svg xmlns="http://www.w3.org/2000/svg" viewBox="47.571 -35.769 1500.249 1692.311" xmlns:bx="https://boxy-svg.com">
  <defs>
    <style bx:fonts="Poppins">@import url(https://fonts.googleapis.com/css2?family=Poppins%3Aital%2Cwght%400%2C100%3B0%2C200%3B0%2C300%3B0%2C400%3B0%2C500%3B0%2C600%3B0%2C700%3B0%2C800%3B0%2C900%3B1%2C100%3B1%2C200%3B1%2C300%3B1%2C400%3B1%2C500%3B1%2C600%3B1%2C700%3B1%2C800%3B1%2C900&amp;display=swap);</style>
    <bx:export>
      <bx:file format="svg" path="Sem título.svg"/>
      <bx:file format="svg" href="#object-0" path="Sem título 2.svg"/>
      <bx:file format="svg" href="#group-1" path="Sem título 3.svg"/>
      <bx:file format="svg" href="#object-1" path="Sem título 4.svg"/>
      <bx:file format="svg" href="#object-2" path="Sem título 5.svg"/>
      <bx:file format="svg" href="#group-3" path="Sem título 6.svg"/>
      <bx:file format="svg" href="#group-4" path="Sem título 7.svg"/>
      <bx:file format="svg" href="#group-5" path="Sem título 8.svg"/>
      <bx:file format="svg" href="#group-6" path="Sem título 9.svg"/>
      <bx:file format="svg" href="#group-7" path="Sem título 10.svg"/>
    </bx:export>
    <linearGradient id="gradient-2" bx:pinned="true">
      <stop style="stop-color: rgb(8, 49, 74);" offset="0"/>
      <stop style="stop-color: rgb(68, 163, 170);" offset="1"/>
    </linearGradient>
  </defs>
  <g id="object-0" transform="matrix(1, 0, 0, 1, 1.328132, -39.534817)">
    <g transform="matrix(1, 0, 0, 1, -14.53711, -149.319763)">
      <text style="fill: rgb(64, 64, 64); font-family: Poppins; font-size: 100px; font-weight: 600; white-space: pre;" x="226.254" y="423.449">mundam</text>
    </g>
    <g transform="matrix(0.427183, -0.246634, 0.246634, 0.427183, -43.112663, -37.067535)" style="transform-origin: 244.285px 216.65px;">
      <path d="M 81.325 172.932 L 155.054 130.364 L 155.054 248.022 C 155.49 258.538 160.157 269.976 166.969 276.788 C 173.782 283.6 185.22 288.267 195.735 288.703 L 214.26 288.703 L 164.689 317.323 C 159.34 320.916 154.859 320.96 148.996 319.389 C 143.133 317.818 139.275 315.539 136.438 309.753 L 73.755 201.183 C 70.162 195.834 70.118 191.353 71.689 185.49 C 73.26 179.627 75.539 175.769 81.325 172.932 Z" style="fill-rule: nonzero; stroke-width: 20; stroke-linejoin: round; stroke-linecap: round; fill: rgb(67, 162, 170);"/>
      <path d="M 195.735 101.975 L 283.755 101.975 C 290.184 101.538 294.087 103.74 298.379 108.032 C 299.49 109.143 300.46 110.227 301.281 111.336 C 295.053 114.98 289.29 120.43 285.447 126.493 L 222.764 235.063 C 217.884 244.387 216.207 256.626 218.7 265.933 C 218.947 266.853 219.243 267.778 219.585 268.703 L 195.735 268.703 C 189.306 269.14 185.403 266.938 181.111 262.646 C 176.819 258.354 174.618 254.451 175.054 248.022 L 175.054 122.656 C 174.617 116.227 176.819 112.324 181.111 108.032 C 185.403 103.74 189.306 101.539 195.735 101.975 Z" style="fill-rule: nonzero; stroke-width: 20px; stroke-linejoin: round; stroke-linecap: round; fill: rgb(67, 162, 170);"/>
      <path d="M 416.882 185.491 C 418.453 191.354 418.409 195.835 414.816 201.184 L 352.133 309.754 C 349.296 315.54 345.438 317.819 339.575 319.39 C 333.712 320.961 329.231 320.917 323.882 317.324 L 247.654 273.314 C 241.869 270.477 239.589 266.619 238.018 260.756 C 236.447 254.893 236.492 250.412 240.085 245.063 L 302.768 136.493 C 305.604 130.707 309.462 128.428 315.325 126.857 C 321.188 125.286 325.669 125.33 331.018 128.923 L 407.246 172.933 C 413.032 175.77 415.311 179.628 416.882 185.491 Z" style="fill-rule: nonzero; stroke-width: 20; stroke-linejoin: round; stroke-linecap: round; fill: rgb(67, 162, 170);"/>
    </g>
  </g>
  <g>
    <g transform="matrix(0.992214, 0, 0, 0.933788, 8.208522, 0.564522)">
      <rect x="770.075" y="8.526" width="705.493" height="321.272" style="stroke: rgb(0, 0, 0); fill: rgb(67, 161, 170);"/>
    </g>
    <g id="group-1" transform="matrix(1, 0, 0, 1, 728.405945, -39.534821)">
      <g transform="matrix(1, 0, 0, 1, -14.53711, -149.319763)">
        <text style="fill: rgb(255, 255, 255); font-family: Poppins; font-size: 100px; font-weight: 600; white-space: pre;" x="226.254" y="423.449">mundam</text>
      </g>
      <g transform="matrix(0.427183, -0.246634, 0.246634, 0.427183, -43.112663, -37.067535)" style="transform-origin: 244.285px 216.65px;">
        <path d="M 81.325 172.932 L 155.054 130.364 L 155.054 248.022 C 155.49 258.538 160.157 269.976 166.969 276.788 C 173.782 283.6 185.22 288.267 195.735 288.703 L 214.26 288.703 L 164.689 317.323 C 159.34 320.916 154.859 320.96 148.996 319.389 C 143.133 317.818 139.275 315.539 136.438 309.753 L 73.755 201.183 C 70.162 195.834 70.118 191.353 71.689 185.49 C 73.26 179.627 75.539 175.769 81.325 172.932 Z" style="fill-rule: nonzero; stroke-width: 20; stroke-linejoin: round; stroke-linecap: round; fill: rgb(255, 255, 255);"/>
        <path d="M 195.735 101.975 L 283.755 101.975 C 290.184 101.538 294.087 103.74 298.379 108.032 C 299.49 109.143 300.46 110.227 301.281 111.336 C 295.053 114.98 289.29 120.43 285.447 126.493 L 222.764 235.063 C 217.884 244.387 216.207 256.626 218.7 265.933 C 218.947 266.853 219.243 267.778 219.585 268.703 L 195.735 268.703 C 189.306 269.14 185.403 266.938 181.111 262.646 C 176.819 258.354 174.618 254.451 175.054 248.022 L 175.054 122.656 C 174.617 116.227 176.819 112.324 181.111 108.032 C 185.403 103.74 189.306 101.539 195.735 101.975 Z" style="fill-rule: nonzero; stroke-width: 20px; stroke-linejoin: round; stroke-linecap: round; fill: rgb(255, 255, 255);"/>
        <path d="M 416.882 185.491 C 418.453 191.354 418.409 195.835 414.816 201.184 L 352.133 309.754 C 349.296 315.54 345.438 317.819 339.575 319.39 C 333.712 320.961 329.231 320.917 323.882 317.324 L 247.654 273.314 C 241.869 270.477 239.589 266.619 238.018 260.756 C 236.447 254.893 236.492 250.412 240.085 245.063 L 302.768 136.493 C 305.604 130.707 309.462 128.428 315.325 126.857 C 321.188 125.286 325.669 125.33 331.018 128.923 L 407.246 172.933 C 413.032 175.77 415.311 179.628 416.882 185.491 Z" style="fill-rule: nonzero; stroke-width: 20; stroke-linejoin: round; stroke-linecap: round; fill: rgb(255, 255, 255);"/>
      </g>
    </g>
    <g id="group-4" transform="matrix(1, 0, 0, 1, 713.568237, 633.56488)">
      <g transform="matrix(1, 0, 0, 1, -14.53711, -149.319763)">
        <text style="fill: rgb(69, 69, 69); font-family: Poppins; font-size: 100px; font-weight: 600; white-space: pre;" x="226.254" y="423.449">mundam</text>
      </g>
      <g transform="matrix(0.427183, -0.246634, 0.246634, 0.427183, -43.112663, -37.067535)" style="transform-origin: 244.285px 216.65px;">
        <path d="M 81.325 172.932 L 155.054 130.364 L 155.054 248.022 C 155.49 258.538 160.157 269.976 166.969 276.788 C 173.782 283.6 185.22 288.267 195.735 288.703 L 214.26 288.703 L 164.689 317.323 C 159.34 320.916 154.859 320.96 148.996 319.389 C 143.133 317.818 139.275 315.539 136.438 309.753 L 73.755 201.183 C 70.162 195.834 70.118 191.353 71.689 185.49 C 73.26 179.627 75.539 175.769 81.325 172.932 Z" style="fill-rule: nonzero; stroke-width: 20; stroke-linejoin: round; stroke-linecap: round; fill: rgb(69, 69, 69);"/>
        <path d="M 195.735 101.975 L 283.755 101.975 C 290.184 101.538 294.087 103.74 298.379 108.032 C 299.49 109.143 300.46 110.227 301.281 111.336 C 295.053 114.98 289.29 120.43 285.447 126.493 L 222.764 235.063 C 217.884 244.387 216.207 256.626 218.7 265.933 C 218.947 266.853 219.243 267.778 219.585 268.703 L 195.735 268.703 C 189.306 269.14 185.403 266.938 181.111 262.646 C 176.819 258.354 174.618 254.451 175.054 248.022 L 175.054 122.656 C 174.617 116.227 176.819 112.324 181.111 108.032 C 185.403 103.74 189.306 101.539 195.735 101.975 Z" style="fill-rule: nonzero; stroke-width: 20px; stroke-linejoin: round; stroke-linecap: round; fill: rgb(69, 69, 69);"/>
        <path d="M 416.882 185.491 C 418.453 191.354 418.409 195.835 414.816 201.184 L 352.133 309.754 C 349.296 315.54 345.438 317.819 339.575 319.39 C 333.712 320.961 329.231 320.917 323.882 317.324 L 247.654 273.314 C 241.869 270.477 239.589 266.619 238.018 260.756 C 236.447 254.893 236.492 250.412 240.085 245.063 L 302.768 136.493 C 305.604 130.707 309.462 128.428 315.325 126.857 C 321.188 125.286 325.669 125.33 331.018 128.923 L 407.246 172.933 C 413.032 175.77 415.311 179.628 416.882 185.491 Z" style="fill-rule: nonzero; stroke-width: 20; stroke-linejoin: round; stroke-linecap: round; fill: rgb(69, 69, 69);"/>
      </g>
    </g>
    <g id="group-5" transform="matrix(1, 0, 0, 1, 39.127247, 629.261292)">
      <g transform="matrix(1, 0, 0, 1, -14.53711, -149.319763)">
        <text style="font-family: Poppins; font-size: 100px; font-weight: 600; white-space: pre;" x="226.254" y="423.449">mundam</text>
      </g>
      <g transform="matrix(0.427183, -0.246634, 0.246634, 0.427183, -43.112663, -37.067535)" style="transform-origin: 244.285px 216.65px;">
        <path d="M 81.325 172.932 L 155.054 130.364 L 155.054 248.022 C 155.49 258.538 160.157 269.976 166.969 276.788 C 173.782 283.6 185.22 288.267 195.735 288.703 L 214.26 288.703 L 164.689 317.323 C 159.34 320.916 154.859 320.96 148.996 319.389 C 143.133 317.818 139.275 315.539 136.438 309.753 L 73.755 201.183 C 70.162 195.834 70.118 191.353 71.689 185.49 C 73.26 179.627 75.539 175.769 81.325 172.932 Z" style="fill-rule: nonzero; stroke-width: 20; stroke-linejoin: round; stroke-linecap: round;"/>
        <path d="M 195.735 101.975 L 283.755 101.975 C 290.184 101.538 294.087 103.74 298.379 108.032 C 299.49 109.143 300.46 110.227 301.281 111.336 C 295.053 114.98 289.29 120.43 285.447 126.493 L 222.764 235.063 C 217.884 244.387 216.207 256.626 218.7 265.933 C 218.947 266.853 219.243 267.778 219.585 268.703 L 195.735 268.703 C 189.306 269.14 185.403 266.938 181.111 262.646 C 176.819 258.354 174.618 254.451 175.054 248.022 L 175.054 122.656 C 174.617 116.227 176.819 112.324 181.111 108.032 C 185.403 103.74 189.306 101.539 195.735 101.975 Z" style="fill-rule: nonzero; stroke-width: 20px; stroke-linejoin: round; stroke-linecap: round;"/>
        <path d="M 416.882 185.491 C 418.453 191.354 418.409 195.835 414.816 201.184 L 352.133 309.754 C 349.296 315.54 345.438 317.819 339.575 319.39 C 333.712 320.961 329.231 320.917 323.882 317.324 L 247.654 273.314 C 241.869 270.477 239.589 266.619 238.018 260.756 C 236.447 254.893 236.492 250.412 240.085 245.063 L 302.768 136.493 C 305.604 130.707 309.462 128.428 315.325 126.857 C 321.188 125.286 325.669 125.33 331.018 128.923 L 407.246 172.933 C 413.032 175.77 415.311 179.628 416.882 185.491 Z" style="fill-rule: nonzero; stroke-width: 20; stroke-linejoin: round; stroke-linecap: round;"/>
      </g>
    </g>
  </g>
  <g transform="matrix(1, 0, 0, 1, 0, -7.44838)">
    <g transform="matrix(0.992214, 0, 0, 0.933788, 8.208522, 346.034973)">
      <rect x="770.075" y="8.526" width="705.493" height="321.272" style="stroke: rgb(0, 0, 0); fill: rgb(69, 69, 69);"/>
    </g>
    <g id="group-2" transform="matrix(1, 0, 0, 1, 728.405945, 305.935638)">
      <g transform="matrix(1, 0, 0, 1, -14.53711, -149.319763)">
        <text style="fill: rgb(255, 255, 255); font-family: Poppins; font-size: 100px; font-weight: 600; white-space: pre;" x="226.254" y="423.449">mundam</text>
      </g>
      <g transform="matrix(0.427183, -0.246634, 0.246634, 0.427183, -43.112663, -37.067535)" style="transform-origin: 244.285px 216.65px;">
        <path d="M 81.325 172.932 L 155.054 130.364 L 155.054 248.022 C 155.49 258.538 160.157 269.976 166.969 276.788 C 173.782 283.6 185.22 288.267 195.735 288.703 L 214.26 288.703 L 164.689 317.323 C 159.34 320.916 154.859 320.96 148.996 319.389 C 143.133 317.818 139.275 315.539 136.438 309.753 L 73.755 201.183 C 70.162 195.834 70.118 191.353 71.689 185.49 C 73.26 179.627 75.539 175.769 81.325 172.932 Z" style="fill-rule: nonzero; stroke-width: 20; stroke-linejoin: round; stroke-linecap: round; fill: rgb(255, 255, 255);"/>
        <path d="M 195.735 101.975 L 283.755 101.975 C 290.184 101.538 294.087 103.74 298.379 108.032 C 299.49 109.143 300.46 110.227 301.281 111.336 C 295.053 114.98 289.29 120.43 285.447 126.493 L 222.764 235.063 C 217.884 244.387 216.207 256.626 218.7 265.933 C 218.947 266.853 219.243 267.778 219.585 268.703 L 195.735 268.703 C 189.306 269.14 185.403 266.938 181.111 262.646 C 176.819 258.354 174.618 254.451 175.054 248.022 L 175.054 122.656 C 174.617 116.227 176.819 112.324 181.111 108.032 C 185.403 103.74 189.306 101.539 195.735 101.975 Z" style="fill-rule: nonzero; stroke-width: 20px; stroke-linejoin: round; stroke-linecap: round; fill: rgb(255, 255, 255);"/>
        <path d="M 416.882 185.491 C 418.453 191.354 418.409 195.835 414.816 201.184 L 352.133 309.754 C 349.296 315.54 345.438 317.819 339.575 319.39 C 333.712 320.961 329.231 320.917 323.882 317.324 L 247.654 273.314 C 241.869 270.477 239.589 266.619 238.018 260.756 C 236.447 254.893 236.492 250.412 240.085 245.063 L 302.768 136.493 C 305.604 130.707 309.462 128.428 315.325 126.857 C 321.188 125.286 325.669 125.33 331.018 128.923 L 407.246 172.933 C 413.032 175.77 415.311 179.628 416.882 185.491 Z" style="fill-rule: nonzero; stroke-width: 20; stroke-linejoin: round; stroke-linecap: round; fill: rgb(255, 255, 255);"/>
      </g>
    </g>
  </g>
  <g transform="matrix(1, 0, 0, 1, 43.217579, 7.448364)">
    <g transform="matrix(0.425235, 0, 0, 0.933788, 46.947887, 331.138214)" style="">
      <rect x="770.075" y="8.526" width="705.493" height="321.272" style="stroke: rgb(0, 0, 0); fill: rgb(69, 69, 69);"/>
    </g>
    <g transform="matrix(0.515649, -0.29771, 0.29771, 0.515649, 281.763519, 275.286621)" style="transform-origin: 244.285px 216.65px;" id="object-1">
      <path d="M 81.325 172.932 L 155.054 130.364 L 155.054 248.022 C 155.49 258.538 160.157 269.976 166.969 276.788 C 173.782 283.6 185.22 288.267 195.735 288.703 L 214.26 288.703 L 164.689 317.323 C 159.34 320.916 154.859 320.96 148.996 319.389 C 143.133 317.818 139.275 315.539 136.438 309.753 L 73.755 201.183 C 70.162 195.834 70.118 191.353 71.689 185.49 C 73.26 179.627 75.539 175.769 81.325 172.932 Z" style="fill-rule: nonzero; stroke-width: 20; stroke-linejoin: round; stroke-linecap: round; fill: rgb(255, 255, 255);"/>
      <path d="M 195.735 101.975 L 283.755 101.975 C 290.184 101.538 294.087 103.74 298.379 108.032 C 299.49 109.143 300.46 110.227 301.281 111.336 C 295.053 114.98 289.29 120.43 285.447 126.493 L 222.764 235.063 C 217.884 244.387 216.207 256.626 218.7 265.933 C 218.947 266.853 219.243 267.778 219.585 268.703 L 195.735 268.703 C 189.306 269.14 185.403 266.938 181.111 262.646 C 176.819 258.354 174.618 254.451 175.054 248.022 L 175.054 122.656 C 174.617 116.227 176.819 112.324 181.111 108.032 C 185.403 103.74 189.306 101.539 195.735 101.975 Z" style="fill-rule: nonzero; stroke-width: 20px; stroke-linejoin: round; stroke-linecap: round; fill: rgb(255, 255, 255);"/>
      <path d="M 416.882 185.491 C 418.453 191.354 418.409 195.835 414.816 201.184 L 352.133 309.754 C 349.296 315.54 345.438 317.819 339.575 319.39 C 333.712 320.961 329.231 320.917 323.882 317.324 L 247.654 273.314 C 241.869 270.477 239.589 266.619 238.018 260.756 C 236.447 254.893 236.492 250.412 240.085 245.063 L 302.768 136.493 C 305.604 130.707 309.462 128.428 315.325 126.857 C 321.188 125.286 325.669 125.33 331.018 128.923 L 407.246 172.933 C 413.032 175.77 415.311 179.628 416.882 185.491 Z" style="fill-rule: nonzero; stroke-width: 20; stroke-linejoin: round; stroke-linecap: round; fill: rgb(255, 255, 255);"/>
    </g>
    <g transform="matrix(0.515649, -0.29771, 0.29771, 0.515649, 163.860474, 891.710022)" style="transform-origin: 244.285px 216.65px;" id="group-6">
      <path d="M 81.325 172.932 L 155.054 130.364 L 155.054 248.022 C 155.49 258.538 160.157 269.976 166.969 276.788 C 173.782 283.6 185.22 288.267 195.735 288.703 L 214.26 288.703 L 164.689 317.323 C 159.34 320.916 154.859 320.96 148.996 319.389 C 143.133 317.818 139.275 315.539 136.438 309.753 L 73.755 201.183 C 70.162 195.834 70.118 191.353 71.689 185.49 C 73.26 179.627 75.539 175.769 81.325 172.932 Z" style="fill-rule: nonzero; stroke-width: 20; stroke-linejoin: round; stroke-linecap: round; fill: rgb(64, 64, 64);"/>
      <path d="M 195.735 101.975 L 283.755 101.975 C 290.184 101.538 294.087 103.74 298.379 108.032 C 299.49 109.143 300.46 110.227 301.281 111.336 C 295.053 114.98 289.29 120.43 285.447 126.493 L 222.764 235.063 C 217.884 244.387 216.207 256.626 218.7 265.933 C 218.947 266.853 219.243 267.778 219.585 268.703 L 195.735 268.703 C 189.306 269.14 185.403 266.938 181.111 262.646 C 176.819 258.354 174.618 254.451 175.054 248.022 L 175.054 122.656 C 174.617 116.227 176.819 112.324 181.111 108.032 C 185.403 103.74 189.306 101.539 195.735 101.975 Z" style="fill-rule: nonzero; stroke-width: 20px; stroke-linejoin: round; stroke-linecap: round; fill: rgb(64, 64, 64);"/>
      <path d="M 416.882 185.491 C 418.453 191.354 418.409 195.835 414.816 201.184 L 352.133 309.754 C 349.296 315.54 345.438 317.819 339.575 319.39 C 333.712 320.961 329.231 320.917 323.882 317.324 L 247.654 273.314 C 241.869 270.477 239.589 266.619 238.018 260.756 C 236.447 254.893 236.492 250.412 240.085 245.063 L 302.768 136.493 C 305.604 130.707 309.462 128.428 315.325 126.857 C 321.188 125.286 325.669 125.33 331.018 128.923 L 407.246 172.933 C 413.032 175.77 415.311 179.628 416.882 185.491 Z" style="fill-rule: nonzero; stroke-width: 20; stroke-linejoin: round; stroke-linecap: round; fill: rgb(64, 64, 64);"/>
    </g>
    <g transform="matrix(0.515649, -0.29771, 0.29771, 0.515649, 595.88031, 878.672791)" style="transform-origin: 244.285px 216.65px;" id="group-7">
      <path d="M 81.325 172.932 L 155.054 130.364 L 155.054 248.022 C 155.49 258.538 160.157 269.976 166.969 276.788 C 173.782 283.6 185.22 288.267 195.735 288.703 L 214.26 288.703 L 164.689 317.323 C 159.34 320.916 154.859 320.96 148.996 319.389 C 143.133 317.818 139.275 315.539 136.438 309.753 L 73.755 201.183 C 70.162 195.834 70.118 191.353 71.689 185.49 C 73.26 179.627 75.539 175.769 81.325 172.932 Z" style="fill-rule: nonzero; stroke-width: 20; stroke-linejoin: round; stroke-linecap: round;"/>
      <path d="M 195.735 101.975 L 283.755 101.975 C 290.184 101.538 294.087 103.74 298.379 108.032 C 299.49 109.143 300.46 110.227 301.281 111.336 C 295.053 114.98 289.29 120.43 285.447 126.493 L 222.764 235.063 C 217.884 244.387 216.207 256.626 218.7 265.933 C 218.947 266.853 219.243 267.778 219.585 268.703 L 195.735 268.703 C 189.306 269.14 185.403 266.938 181.111 262.646 C 176.819 258.354 174.618 254.451 175.054 248.022 L 175.054 122.656 C 174.617 116.227 176.819 112.324 181.111 108.032 C 185.403 103.74 189.306 101.539 195.735 101.975 Z" style="fill-rule: nonzero; stroke-width: 20px; stroke-linejoin: round; stroke-linecap: round;"/>
      <path d="M 416.882 185.491 C 418.453 191.354 418.409 195.835 414.816 201.184 L 352.133 309.754 C 349.296 315.54 345.438 317.819 339.575 319.39 C 333.712 320.961 329.231 320.917 323.882 317.324 L 247.654 273.314 C 241.869 270.477 239.589 266.619 238.018 260.756 C 236.447 254.893 236.492 250.412 240.085 245.063 L 302.768 136.493 C 305.604 130.707 309.462 128.428 315.325 126.857 C 321.188 125.286 325.669 125.33 331.018 128.923 L 407.246 172.933 C 413.032 175.77 415.311 179.628 416.882 185.491 Z" style="fill-rule: nonzero; stroke-width: 20; stroke-linejoin: round; stroke-linecap: round;"/>
    </g>
    <g transform="matrix(0.515649, -0.29771, 0.29771, 0.515649, 971.76178, 872.954224)" style="transform-origin: 244.285px 216.65px;" id="group-8">
      <path d="M 81.325 172.932 L 155.054 130.364 L 155.054 248.022 C 155.49 258.538 160.157 269.976 166.969 276.788 C 173.782 283.6 185.22 288.267 195.735 288.703 L 214.26 288.703 L 164.689 317.323 C 159.34 320.916 154.859 320.96 148.996 319.389 C 143.133 317.818 139.275 315.539 136.438 309.753 L 73.755 201.183 C 70.162 195.834 70.118 191.353 71.689 185.49 C 73.26 179.627 75.539 175.769 81.325 172.932 Z" style="fill-rule: nonzero; stroke-width: 20; stroke-linejoin: round; stroke-linecap: round; fill: rgb(12, 49, 75);"/>
      <path d="M 195.735 101.975 L 283.755 101.975 C 290.184 101.538 294.087 103.74 298.379 108.032 C 299.49 109.143 300.46 110.227 301.281 111.336 C 295.053 114.98 289.29 120.43 285.447 126.493 L 222.764 235.063 C 217.884 244.387 216.207 256.626 218.7 265.933 C 218.947 266.853 219.243 267.778 219.585 268.703 L 195.735 268.703 C 189.306 269.14 185.403 266.938 181.111 262.646 C 176.819 258.354 174.618 254.451 175.054 248.022 L 175.054 122.656 C 174.617 116.227 176.819 112.324 181.111 108.032 C 185.403 103.74 189.306 101.539 195.735 101.975 Z" style="fill-rule: nonzero; stroke-width: 20px; stroke-linejoin: round; stroke-linecap: round; fill: rgb(12, 49, 75);"/>
      <path d="M 416.882 185.491 C 418.453 191.354 418.409 195.835 414.816 201.184 L 352.133 309.754 C 349.296 315.54 345.438 317.819 339.575 319.39 C 333.712 320.961 329.231 320.917 323.882 317.324 L 247.654 273.314 C 241.869 270.477 239.589 266.619 238.018 260.756 C 236.447 254.893 236.492 250.412 240.085 245.063 L 302.768 136.493 C 305.604 130.707 309.462 128.428 315.325 126.857 C 321.188 125.286 325.669 125.33 331.018 128.923 L 407.246 172.933 C 413.032 175.77 415.311 179.628 416.882 185.491 Z" style="fill-rule: nonzero; stroke-width: 20; stroke-linejoin: round; stroke-linecap: round; fill: rgb(12, 49, 75);"/>
    </g>
  </g>
  <g transform="matrix(1, 0, 0, 1, 43.217579, 6.280029)" id="object-2">
    <g transform="matrix(0.425235, 0, 0, 0.933788, -271.614044, 332.306549)" style="">
      <rect x="770.075" y="8.526" width="705.493" height="321.272" style="stroke: rgb(0, 0, 0); fill: rgb(67, 162, 170);"/>
    </g>
    <g transform="matrix(0.515649, -0.29771, 0.29771, 0.515649, -36.798393, 276.454987)" style="transform-origin: 244.285px 216.65px;" id="group-3">
      <path d="M 81.325 172.932 L 155.054 130.364 L 155.054 248.022 C 155.49 258.538 160.157 269.976 166.969 276.788 C 173.782 283.6 185.22 288.267 195.735 288.703 L 214.26 288.703 L 164.689 317.323 C 159.34 320.916 154.859 320.96 148.996 319.389 C 143.133 317.818 139.275 315.539 136.438 309.753 L 73.755 201.183 C 70.162 195.834 70.118 191.353 71.689 185.49 C 73.26 179.627 75.539 175.769 81.325 172.932 Z" style="fill-rule: nonzero; stroke-width: 20; stroke-linejoin: round; stroke-linecap: round; fill: rgb(255, 255, 255);"/>
      <path d="M 195.735 101.975 L 283.755 101.975 C 290.184 101.538 294.087 103.74 298.379 108.032 C 299.49 109.143 300.46 110.227 301.281 111.336 C 295.053 114.98 289.29 120.43 285.447 126.493 L 222.764 235.063 C 217.884 244.387 216.207 256.626 218.7 265.933 C 218.947 266.853 219.243 267.778 219.585 268.703 L 195.735 268.703 C 189.306 269.14 185.403 266.938 181.111 262.646 C 176.819 258.354 174.618 254.451 175.054 248.022 L 175.054 122.656 C 174.617 116.227 176.819 112.324 181.111 108.032 C 185.403 103.74 189.306 101.539 195.735 101.975 Z" style="fill-rule: nonzero; stroke-width: 20px; stroke-linejoin: round; stroke-linecap: round; fill: rgb(255, 255, 255);"/>
      <path d="M 416.882 185.491 C 418.453 191.354 418.409 195.835 414.816 201.184 L 352.133 309.754 C 349.296 315.54 345.438 317.819 339.575 319.39 C 333.712 320.961 329.231 320.917 323.882 317.324 L 247.654 273.314 C 241.869 270.477 239.589 266.619 238.018 260.756 C 236.447 254.893 236.492 250.412 240.085 245.063 L 302.768 136.493 C 305.604 130.707 309.462 128.428 315.325 126.857 C 321.188 125.286 325.669 125.33 331.018 128.923 L 407.246 172.933 C 413.032 175.77 415.311 179.628 416.882 185.491 Z" style="fill-rule: nonzero; stroke-width: 20; stroke-linejoin: round; stroke-linecap: round; fill: rgb(255, 255, 255);"/>
    </g>
  </g>
  <g transform="matrix(1, 0, 0, 1, 106.929161, 73.372467)">
    <g id="group-10" transform="matrix(1, 0, 0, 1, -22.743378, 755.464722)">
      <g transform="matrix(1, 0, 0, 1, -14.53711, -149.319763)">
        <text style="fill: rgb(8, 49, 74); font-family: Poppins; font-size: 100px; font-weight: 600; white-space: pre;" x="256.359" y="845.236">mundam</text>
      </g>
      <g transform="matrix(0.427183, -0.246634, 0.246634, 0.427183, -13.007893, 384.719452)" style="transform-origin: 244.285px 216.65px;">
        <path d="M 81.325 172.932 L 155.054 130.364 L 155.054 248.022 C 155.49 258.538 160.157 269.976 166.969 276.788 C 173.782 283.6 185.22 288.267 195.735 288.703 L 214.26 288.703 L 164.689 317.323 C 159.34 320.916 154.859 320.96 148.996 319.389 C 143.133 317.818 139.275 315.539 136.438 309.753 L 73.755 201.183 C 70.162 195.834 70.118 191.353 71.689 185.49 C 73.26 179.627 75.539 175.769 81.325 172.932 Z" style="fill-rule: nonzero; stroke-width: 20; stroke-linejoin: round; stroke-linecap: round; fill: rgb(67, 162, 170);"/>
        <path d="M 195.735 101.975 L 283.755 101.975 C 290.184 101.538 294.087 103.74 298.379 108.032 C 299.49 109.143 300.46 110.227 301.281 111.336 C 295.053 114.98 289.29 120.43 285.447 126.493 L 222.764 235.063 C 217.884 244.387 216.207 256.626 218.7 265.933 C 218.947 266.853 219.243 267.778 219.585 268.703 L 195.735 268.703 C 189.306 269.14 185.403 266.938 181.111 262.646 C 176.819 258.354 174.618 254.451 175.054 248.022 L 175.054 122.656 C 174.617 116.227 176.819 112.324 181.111 108.032 C 185.403 103.74 189.306 101.539 195.735 101.975 Z" style="fill-rule: nonzero; stroke-width: 20px; stroke-linejoin: round; stroke-linecap: round; fill: rgb(67, 162, 170);"/>
        <path d="M 416.882 185.491 C 418.453 191.354 418.409 195.835 414.816 201.184 L 352.133 309.754 C 349.296 315.54 345.438 317.819 339.575 319.39 C 333.712 320.961 329.231 320.917 323.882 317.324 L 247.654 273.314 C 241.869 270.477 239.589 266.619 238.018 260.756 C 236.447 254.893 236.492 250.412 240.085 245.063 L 302.768 136.493 C 305.604 130.707 309.462 128.428 315.325 126.857 C 321.188 125.286 325.669 125.33 331.018 128.923 L 407.246 172.933 C 413.032 175.77 415.311 179.628 416.882 185.491 Z" style="fill-rule: nonzero; stroke-width: 20; stroke-linejoin: round; stroke-linecap: round; fill: rgb(67, 162, 170);"/>
      </g>
    </g>
  </g>
  <g transform="matrix(0.553778, 0, 0, 0.553778, 1035.555786, 1348.943237)" style="">
    <path d="M 373.305 23.356 C 383.097 31.191 389.585 43.554 390 55.6 L 390 344.4 C 389.586 356.446 383.098 368.809 373.305 376.644 C 363.512 384.478 348.057 389.667 333 390 L 67 390 C 51.942 389.668 36.488 384.479 26.695 376.644 C 16.903 368.809 10.415 356.446 10 344.4 L 10 55.6 C 10.414 43.554 16.902 31.191 26.695 23.356 C 36.488 15.522 51.942 10.332 67 10 L 333 10 C 348.057 10.332 363.512 15.521 373.305 23.356 Z" style="stroke-linecap: round; stroke-linejoin: round; stroke-width: 20px; paint-order: fill; fill: rgb(0, 160, 169); fill-rule: nonzero; stroke: rgb(8, 49, 74);" id="background"/>
    <g id="content" style="" transform="matrix(1, 0, 0, 1, 4.410816, -13.609188)">
      <path d="M 68.224 219.989 L 136.543 180.545 L 136.543 289.57 C 136.947 299.314 141.272 309.913 147.584 316.225 C 153.897 322.537 164.496 326.862 174.239 327.266 L 191.405 327.266 L 145.471 353.786 C 140.515 357.115 136.362 357.156 130.929 355.701 C 125.497 354.245 121.922 352.133 119.293 346.772 L 61.209 246.168 C 57.88 241.211 57.839 237.059 59.295 231.626 C 60.75 226.193 62.862 222.618 68.224 219.989 Z" style="fill-rule: nonzero; stroke-width: 18.533; stroke-linejoin: round; stroke-linecap: round; transform-box: fill-box; transform-origin: 50% 50%; filter: none; fill: rgb(8, 49, 74);" transform="matrix(0.866025, -0.5, 0.5, 0.866025, -0.000002, 0.000008)"/>
      <path d="M 143.817 114.888 L 225.379 114.888 C 231.336 114.483 234.952 116.524 238.93 120.501 C 239.959 121.53 240.858 122.535 241.619 123.562 C 235.848 126.939 230.507 131.989 226.946 137.607 L 168.863 238.211 C 164.341 246.851 162.787 258.192 165.097 266.816 C 165.326 267.669 165.6 268.526 165.917 269.383 L 143.817 269.383 C 137.86 269.788 134.243 267.747 130.266 263.77 C 126.289 259.793 124.249 256.177 124.653 250.219 L 124.653 134.052 C 124.248 128.094 126.289 124.478 130.266 120.501 C 134.243 116.524 137.86 114.484 143.817 114.888 Z" style="fill-rule: nonzero; stroke-width: 18.533; stroke-linejoin: round; stroke-linecap: round; transform-box: fill-box; transform-origin: 50% 50%; filter: none; fill: rgb(8, 49, 74);" transform="matrix(0.866025, -0.5, 0.5, 0.866025, -0.000012, 0.000014)"/>
      <path d="M 355.156 146.207 C 356.612 151.64 356.571 155.792 353.242 160.749 L 295.158 261.353 C 292.529 266.714 288.954 268.826 283.522 270.282 C 278.089 271.737 273.937 271.697 268.98 268.367 L 198.345 227.586 C 192.985 224.957 190.872 221.383 189.416 215.95 C 187.96 210.517 188.002 206.365 191.331 201.408 L 249.415 100.804 C 252.043 95.443 255.618 93.331 261.051 91.875 C 266.484 90.419 270.636 90.46 275.593 93.79 L 346.227 134.57 C 351.589 137.199 353.701 140.774 355.156 146.207 Z" style="fill-rule: nonzero; stroke-width: 18.533; stroke-linejoin: round; stroke-linecap: round; transform-box: fill-box; transform-origin: 50% 50%; filter: none; fill: rgb(8, 49, 74);" transform="matrix(0.866025, -0.5, 0.5, 0.866025, 0.000005, 0.000001)"/>
    </g>
  </g>
</svg>